<?xml version="1.0" encoding="UTF-8" standalone="no"?>
<!-- Generator: Adobe Illustrator 16.0.0, SVG Export Plug-In . SVG Version: 6.00 Build 0)  -->

<svg
   version="1.0"
   x="0px"
   y="0px"
   width="622.07654"
   height="311.72061"
   viewBox="0 0 622.07654 311.7206"
   enable-background="new 0 0 841.891 595.275"
   xml:space="preserve"
   id="svg136"
   sodipodi:docname="ArduinoCommunityLogo_Gris.svg"
   inkscape:version="1.4.3 (0d15f75, 2025-12-25)"
   xmlns:inkscape="http://www.inkscape.org/namespaces/inkscape"
   xmlns:sodipodi="http://sodipodi.sourceforge.net/DTD/sodipodi-0.dtd"
   xmlns="http://www.w3.org/2000/svg"
   xmlns:svg="http://www.w3.org/2000/svg"><defs
   id="defs136">
	

		
		
		
		
		
		
		
		
		
		
		
		
		
		
		
		
		
		
		
		
		
		
		
		
		
		
		
		
		
		
		
		
		
		
		
		
		
		
	</defs><sodipodi:namedview
   id="namedview136"
   pagecolor="#ffffff"
   bordercolor="#666666"
   borderopacity="1.0"
   inkscape:showpageshadow="2"
   inkscape:pageopacity="0.0"
   inkscape:pagecheckerboard="0"
   inkscape:deskcolor="#d1d1d1"
   inkscape:zoom="0.7156356"
   inkscape:cx="475.10213"
   inkscape:cy="371.69755"
   inkscape:window-width="1920"
   inkscape:window-height="1057"
   inkscape:window-x="-8"
   inkscape:window-y="-8"
   inkscape:window-maximized="1"
   inkscape:current-layer="svg136" />



<path
   fill="#62aeb2"
   d="M 208.19868,75.567629 209.57439,73.024465 C 196.81755,66.229547 183.6947,61.771122 170.4977,59.885836 165.03115,59.111212 159.5236,58.718379 154.12647,58.718379 110.58662,58.718379 71.634559,84.908867 57.19595,123.88775 L 71.210172,129.07662 C 83.485829,95.931874 116.80885,73.663412 154.12805,73.663412 158.82628,73.663412 163.62705,74.005761 168.39312,74.68257 193.69381,78.296956 218.00532,92.098196 240.654,115.70135 L 248.90351,107.78314 C 237.75902,95.873501 224.15814,84.200504 208.19868,75.567629 Z"
   id="path1"
   style="stroke-width:1;fill:#b4b4b4;fill-opacity:0.99215686" /><path
   fill="#62aeb2"
   d="M 106.03353,250.08359 C 68.502933,232.63641 44.252949,195.74002 44.252949,156.08433 44.252949,136.02299 50.132832,116.60849 61.253653,99.939092 65.484898,93.590648 70.484455,87.63977 76.10876,82.25369 L 82.998337,89.450907 C 77.89781,94.332141 73.369968,99.7198 69.541023,105.46401 59.515088,120.49265 54.2142,137.99505 54.2142,156.08275 54.2142,192.42854 75.678063,224.98641 110.23323,241.04683 Z"
   id="path2"
   style="stroke-width:1;fill:#b4b4b4;fill-opacity:0.99215686" /><path
   fill="#62aeb2"
   d="M 288.85422,168.31897 284.53462,158.23939 C 284.14021,157.46161 283.59592,156.41879 282.93647,155.1898 275.37166,169.51482 235.57398,239.4613 170.13799,248.80569 164.79451,249.56927 159.28379,251.3173 154.07283,251.3173 138.83278,251.31099 124.21432,248.10364 110.62764,241.78202 L 105.63912,250.92447 C 120.80029,257.97812 137.09421,261.55622 154.08072,261.56253 159.8407,261.56253 165.75056,261.13499 171.64622,260.29253 234.78358,251.27471 274.63332,193.53132 289.31016,168.12176 Z"
   id="path3"
   style="stroke-width:1;fill:#b4b4b4;fill-opacity:0.99215686" /><path
   fill="#e47128"
   d="M 302.69647,217.0051 C 289.89546,234.40022 275.76923,249.46042 260.61437,261.76447 L 264.27135,266.26707 C 279.2574,254.09869 293.259,239.33667 305.98586,222.33438 332.03121,257.87084 375.36597,300.02552 438.18307,308.99286 L 439.67079,298.57567 C 375.46694,289.40797 332.46506,244.01123 306.89617,205.37628 305.69242,203.55252 302.69647,217.0051 302.69647,217.0051 Z"
   id="path4"
   style="stroke-width:1;fill:#898989;fill-opacity:1" /><path
   fill="#e5ad24"
   d="M 470.48535,260.31146 C 462.19325,260.85417 453.75442,260.54022 445.28878,259.33016 425.99734,256.57244 407.30224,248.87038 389.71938,236.43696 L 384.25284,244.16426 C 403.07257,257.47328 423.156,265.72752 443.94778,268.6998 450.20472,269.59432 456.51688,270.04711 462.70756,270.04711 465.31225,270.04711 467.90275,269.94772 470.48535,269.78995 Z"
   id="path5"
   style="stroke-width:1;fill:#bdbdbd;fill-opacity:1" /><path
   fill="#e47128"
   d="M 293.85377,166.17653 288.85264,168.31897 284.53305,158.23939 C 281.2973,151.86886 269.17309,129.43317 248.90351,107.78157 L 240.654,115.69977 C 258.43091,134.22448 269.10999,152.58669 272.8774,159.62141 L 288.04173,186.08483 301.00524,178.65254 Z"
   id="path6"
   style="stroke-width:1;fill:#898989;fill-opacity:1" /><path
   fill="#62aeb2"
   d="M 462.70914,251.88999 C 457.33726,251.88999 451.88965,251.49873 446.51777,250.72569 378.98351,241.08154 339.47296,172.51235 332.23788,158.86256 L 342.68663,153.32503 C 346.83268,161.14542 385.01485,229.99701 448.19638,239.01956 453.01766,239.71215 457.89574,240.06554 462.70756,240.06554 V 251.88999 Z"
   id="path7"
   style="stroke-width:1;fill:#b4b4b4;fill-opacity:0.99215686" /><path
   fill="#00878f"
   d="M 556.80936,129.73765 C 552.30834,115.12235 543.91212,101.63664 532.52467,90.736688 517.60173,76.462154 498.65105,67.337054 477.72043,64.348994 L 479.63412,50.951631 C 503.37925,54.338836 524.90307,64.716586 541.88169,80.958443 554.93197,93.450238 564.56665,108.93956 569.74448,125.7541 Z"
   id="path8"
   style="stroke-width:1;fill:#6b6b6b;fill-opacity:1" /><path
   fill="#00878f"
   d="M 376.02385,86.685295 369.64543,79.421817 C 392.61594,59.248467 417.609,47.114798 443.93516,43.360003 450.15108,42.471788 456.4522,42.020582 462.65708,42.020582 494.71483,42.020582 524.74846,53.863964 547.22517,75.370424 L 540.54226,82.356237 C 519.87354,62.580454 492.21426,51.688392 462.65865,51.688392 456.90814,51.688392 451.06927,52.108045 445.30298,52.931576 420.86683,56.416594 397.5587,67.774062 376.02385,86.685295 Z"
   id="path9"
   style="stroke-width:1;fill:#6b6b6b;fill-opacity:1" /><path
   fill="#e5ad24"
   d="M 326.91648,180.83443 293.38679,164.88443 301.36179,148.1188 C 306.5412,137.23462 326.11662,99.363252 360.58659,69.102439 L 374.53928,56.853602 399.03538,84.75899 385.08268,97.007828 C 355.19577,123.24407 338.02942,157.47581 334.89306,164.07195 Z"
   id="path10"
   style="stroke-width:1;fill:#bdbdbd;fill-opacity:1" /><path
   fill="#00878f"
   d="M 43.09969,200.85317 C 36.907432,186.7222 33.767919,171.65884 33.767919,156.08433 33.767919,125.23348 46.232893,96.32313 68.867369,74.674682 76.774527,67.111451 85.697688,60.66046 95.39074,55.50156 L 100.8415,65.740477 C 92.085573,70.402419 84.025384,76.227085 76.883384,83.059866 56.560159,102.49646 45.366766,128.43136 45.366766,156.08433 45.366766,170.04807 48.17813,183.54167 53.721975,196.19754 Z"
   id="path11"
   style="stroke-width:1;fill:#6b6b6b;fill-opacity:1" /><path
   fill="#e5ad24"
   d="M 83.055132,89.514013 76.051965,82.189006 C 96.77749,62.370627 124.50618,51.456478 154.12805,51.456478 159.90223,51.456478 165.75845,51.874554 171.53263,52.698085 185.67464,54.719048 199.63365,59.415698 213.01997,66.653934 L 208.20026,75.567629 C 195.86939,68.900501 183.05102,64.582486 170.09855,62.73033 164.79924,61.974638 159.4242,61.589693 154.12805,61.589693 127.12823,61.591271 101.88748,71.508348 83.055132,89.514013 Z"
   id="path12"
   style="stroke-width:1;fill:#bdbdbd;fill-opacity:1" /><path
   fill="#e5ad24"
   d="M 13.657675,156.08433 H 7.4701507 C 7.4701507,117.99051 22.819061,82.330994 50.689741,55.675101 L 54.966737,60.146148 C 28.328198,85.62354 13.657675,119.69437 13.657675,156.08433 Z"
   id="path13"
   style="stroke-width:1;fill:#bdbdbd;fill-opacity:1" /><path
   fill="#00878f"
   d="M 258.50663,50.31584 C 233.50569,30.330231 206.10199,18.094015 177.05597,13.946386 169.44856,12.860966 161.73388,12.311945 154.12805,12.311945 124.03762,12.311945 95.14936,20.772856 70.587002,36.7828 L 66.082825,29.871136 C 91.987759,12.9856 122.43473,4.0608607 154.12963,4.0608607 162.12355,4.0608607 170.23107,4.6382788 178.22342,5.7789163 208.74928,10.13795 237.4924,22.95474 263.65922,43.87116 Z"
   id="path14"
   style="stroke-width:1;fill:#6b6b6b;fill-opacity:1" /><path
   fill="#00878f"
   d="M 316.53716,103.87374 300.25901,92.386905 C 326.29962,55.476318 371.29091,9.4879602 437.74448,1.9548e-6 L 440.56058,19.723722 C 381.14173,28.208298 340.32016,70.16735 316.53716,103.87374 Z"
   id="path15"
   style="stroke-width:1;fill:#6b6b6b;fill-opacity:1" /><path
   fill="#62aeb2"
   d="M 335.17546,106.25125 323.65707,97.542649 C 346.44773,67.39385 385.28305,29.787521 440.86506,21.856699 448.09383,20.823341 455.42673,20.299563 462.65708,20.299563 481.39004,20.299563 499.53611,23.716742 516.59203,30.456443 L 511.28641,43.885358 C 495.92804,37.816157 479.56786,34.739749 462.65865,34.739749 456.10985,34.739749 449.46481,35.216198 442.90654,36.153319 392.19155,43.3884 356.3301,78.265403 335.17546,106.25125 Z"
   id="path16"
   style="stroke-width:1;fill:#b4b4b4;fill-opacity:0.99215686" /><path
   fill="#62aeb2"
   d="M 311.9541,129.76132 295.83845,123.20147 300.62976,111.4275 301.0431,110.77594 C 321.84909,77.844171 367.47459,21.067876 439.28742,10.822648 447.04154,9.7151411 454.90453,9.1534994 462.65708,9.1534994 V 26.553348 C 455.7249,26.553348 448.68861,27.056617 441.74697,28.047378 380.46492,36.790688 339.68437,82.409877 316.16168,119.42143 Z"
   id="path17"
   style="stroke-width:1;fill:#b4b4b4;fill-opacity:0.99215686" /><path
   fill="#62aeb2"
   d="M 311.67959,111.92762 303.34173,101.69817 C 289.48527,82.061217 273.96756,65.314513 257.21927,51.925038 L 264.94658,42.257229 C 282.5531,56.332979 298.83282,73.870083 313.32823,94.382626 L 321.26536,104.09777 Z"
   id="path18"
   style="stroke-width:1;fill:#b4b4b4;fill-opacity:0.99215686" /><path
   fill="#e47128"
   d="M 567.76927,53.908138 C 539.73609,27.083437 502.40743,12.311945 462.65865,12.311945 455.05914,12.311945 447.34603,12.862543 439.73547,13.946386 L 438.57117,5.7773387 C 446.5651,4.6367012 454.67104,4.0592831 462.66023,4.0592831 504.54513,4.0592831 543.89949,19.64484 573.47403,47.94464 Z"
   id="path19"
   style="stroke-width:1;fill:#898989;fill-opacity:1" /><path
   fill="#00878f"
   d="M 175.04447,284.11024 172.03748,263.05498 C 256.22378,251.03648 298.17179,152.97795 298.58513,151.98876 300.44991,147.50667 345.44908,41.788668 441.74854,28.045801 L 444.75238,49.101054 C 360.30892,61.151108 318.62911,159.17651 318.21735,160.1657 316.34626,164.66199 271.31869,270.36422 175.04447,284.11024 Z"
   id="path20"
   style="stroke-width:1;fill:#6b6b6b;fill-opacity:1" /><path
   fill="#00878f"
   d="M 86.58748,262.82465 95.821437,246.93461 C 118.47958,260.09848 144.7379,265.00969 171.76139,261.14288 L 174.3645,279.32682 C 191.96787,276.81363 209.16736,270.78702 225.48179,261.41581 L 210.0745,234.58953 C 197.17568,241.99815 183.68681,246.74687 169.98181,248.70315 164.6683,249.46199 159.3185,249.84694 154.07283,249.84694 127.28284,249.84536 102.2393,239.9977 83.555246,222.11825 74.505873,213.45698 67.447488,203.42946 62.580453,192.31811 L 36.023951,203.95009 C 42.364507,218.41867 51.612663,231.68824 63.504953,243.06938 L 62.16711,244.46717 C 69.605707,251.5855 77.806307,257.71623 86.58748,262.82465 Z"
   id="path21"
   style="stroke-width:1;fill:#6b6b6b;fill-opacity:1" /><path
   fill="#00878f"
   d="M 154.08072,288.87315 C 117.18591,288.87157 82.561329,275.17603 56.574358,250.31392 L 62.413222,244.21159 C 86.820971,267.56547 119.37252,280.42644 154.07125,280.42801 160.76047,280.42801 167.56643,279.93894 174.30771,278.975 243.73514,269.0595 285.7005,210.308 304.5928,176.02261 L 309.38411,164.6825 317.16506,167.97031 312.09924,179.90362 C 292.49858,215.53947 248.68895,276.88462 175.50356,287.33494 168.3663,288.3541 161.15961,288.87315 154.08072,288.87315 Z"
   id="path22"
   style="stroke-width:1;fill:#6b6b6b;fill-opacity:1" /><path
   fill="#00878f"
   d="M 154.08072,311.72061 C 111.26501,311.7143 71.031898,295.76746 40.782129,266.81609 L 51.476986,255.64005 C 78.834931,281.82423 115.27065,296.24548 154.07283,296.2518 161.51774,296.2518 169.07624,295.70909 176.54323,294.63944 205.48356,290.50443 232.74211,278.18145 257.56636,258.01283 L 267.31936,270.01713 C 240.28799,291.97795 210.48469,305.41476 178.73458,309.95049 170.54502,311.12426 162.24977,311.72061 154.08072,311.72061 Z"
   id="path23"
   style="stroke-width:1;fill:#6b6b6b;fill-opacity:1" /><path
   fill="#e5ad24"
   d="M 177.23108,299.42128 175.3174,286.02392 C 237.68645,277.11811 278.95134,230.71326 302.60655,193.30256 303.33069,192.04675 309.69964,180.99535 312.13868,176.35707 L 324.11932,182.65503 C 321.41839,187.79027 314.5509,199.68413 314.25904,200.1874 L 314.12178,200.41774 C 288.95361,240.25801 244.77639,289.77714 177.23108,299.42128 Z"
   id="path24"
   style="stroke-width:1;fill:#bdbdbd;fill-opacity:1" /><path
   fill="#62aeb2"
   d="M 87.079705,261.98061 C 48.249124,239.4329 25.067205,199.84505 25.067205,156.08433 25.067205,149.71695 25.567319,143.33222 26.556502,137.10999 L 36.102833,138.62611 C 35.195687,144.3498 34.733437,150.22338 34.733437,156.08433 34.733437,196.36003 56.11684,232.82415 91.932542,253.62067 Z"
   id="path25"
   style="stroke-width:1;fill:#b4b4b4;fill-opacity:0.99215686" /><path
   fill="#e47128"
   d="M 40.499731,139.32185 22.16276,136.41267 C 27.469959,102.97448 45.95365,73.426765 74.210853,53.215552 102.9098,32.685655 138.64504,24.218433 174.85831,29.385221 183.01315,30.551101 191.13645,32.453741 199.00732,35.039502 L 193.21105,52.677575 C 186.37196,50.431008 179.31358,48.777636 172.2331,47.764788 107.98035,38.619179 50.102857,78.816001 40.499731,139.32185 Z"
   id="path26"
   style="stroke-width:1;fill:#898989;fill-opacity:1" /><path
   fill="#e5ad24"
   d="M 38.109598,269.6101 C 21.179887,253.41242 8.3583649,234.38759 6.4239998e-7,213.06256 L 21.599541,204.59534 C 28.721032,222.76193 39.671467,238.9959 54.147939,252.84604 Z"
   id="path27"
   style="stroke-width:1;fill:#bdbdbd;fill-opacity:1" /><path
   fill="#62aeb2"
   d="M 154.08072,301.08254 C 114.018,301.07781 76.395892,286.18011 48.1308,259.13138 22.40414,234.51223 6.8028067,201.73034 4.1981145,166.82809 L 4.1839157,166.57725 3.8021256,156.33675 17.3257,155.83191 17.702757,165.94461 C 20.085002,197.46281 34.211237,227.07836 57.487814,249.35471 83.222363,273.98018 117.52352,287.54477 154.07283,287.5495 161.09808,287.5495 168.24324,287.03677 175.31582,286.02392 L 177.23266,299.42128 C 169.52744,300.52248 161.73703,301.08254 154.08072,301.08254 Z"
   id="path28"
   style="stroke-width:1;fill:#b4b4b4;fill-opacity:0.99215686" /><path
   fill="#e5ad24"
   d="M 216.21628,253.76897 212.01185,246.44238 215.67357,244.34096 C 263.4352,216.92306 290.11633,164.50896 294.98021,154.28108 L 296.79293,150.46791 304.41926,154.09492 302.60655,157.90809 C 297.55493,168.53353 269.8215,222.99857 219.87957,251.66596 Z"
   id="path29"
   style="stroke-width:1;fill:#bdbdbd;fill-opacity:1" /><path
   fill="#00878f"
   d="M 321.73234,150.53733 C 321.30953,149.5229 318.29781,142.41877 312.56938,132.03313 L 314.71971,130.84832 C 294.79878,94.698155 250.27764,32.469518 175.92953,21.856699 168.6976,20.823341 161.36155,20.299563 154.12647,20.299563 V 34.738172 C 160.68001,34.738172 167.32821,35.21462 173.88805,36.151742 181.92616,37.300267 189.57616,39.141379 196.87592,41.514158 L 191.59397,57.573008 C 260.22153,80.145956 294.73252,160.8362 295.0654,161.62818 296.96804,166.20177 342.78759,273.82872 441.20741,287.87608 L 445.2872,259.28757 C 363.28594,247.58302 322.13306,151.49023 321.73234,150.53733 Z"
   id="path30"
   style="stroke-width:1;fill:#6b6b6b;fill-opacity:1" /><path
   fill="#e5ad24"
   d="M 592.65031,156.08433 H 581.04831 C 581.04831,124.13701 566.95205,93.585915 542.37391,72.26404 515.97044,49.35821 480.1437,39.176088 444.06768,44.316056 L 442.43167,32.832376 C 481.8302,27.209649 521.03153,38.39042 549.97658,63.500221 577.0963,87.026066 592.65031,120.7719 592.65031,156.08433 Z"
   id="path31"
   style="stroke-width:1;fill:#bdbdbd;fill-opacity:1" /><rect
   x="139.44177"
   y="107.42503"
   fill="#e5ad24"
   width="31.374628"
   height="97.339134"
   id="rect31"
   style="stroke-width:1;fill:#bdbdbd;fill-opacity:1" /><rect
   x="106.4611"
   y="140.40883"
   fill="#00878f"
   width="97.332817"
   height="31.379362"
   id="rect32"
   style="stroke-width:1;fill:#6b6b6b;fill-opacity:1" /><path
   fill="#62aeb2"
   d="M 621.42498,170.2642 609.02627,169.1141 C 609.42225,164.83237 609.62419,160.44967 609.62419,156.08275 609.62419,117.89112 594.24373,82.144832 566.31625,55.424255 L 574.92546,46.426945 C 605.32984,75.517145 622.07655,114.46132 622.07655,156.08275 622.07497,160.82989 621.85725,165.60226 621.42498,170.2642 Z"
   id="path32"
   style="stroke-width:1;fill:#b4b4b4;fill-opacity:0.99215686" /><path
   fill="#00878f"
   d="M 578.76388,177.51033 570.66898,175.90113 C 571.96896,169.35706 572.62841,162.63156 572.62841,155.91394 572.62841,127.80346 561.25359,101.43786 540.60064,81.674694 L 546.30383,75.712773 C 568.60068,97.047269 580.8795,125.53008 580.8795,155.91394 580.88108,163.17111 580.16798,170.43617 578.76388,177.51033 Z"
   id="path33"
   style="stroke-width:1;fill:#6b6b6b;fill-opacity:1" /><path
   fill="#e47128"
   d="M 564.58873,179.49658 545.8542,174.72105 C 547.39713,168.67236 548.17807,162.40122 548.17965,156.08275 548.17965,111.84716 509.81605,75.857916 462.65865,75.857916 458.06771,75.857916 453.37263,76.193955 448.70438,76.854988 447.46909,77.031684 446.23695,77.2352 445.00954,77.460804 L 441.52136,58.442291 C 443.0012,58.170936 444.4826,57.927978 445.98137,57.713419 451.55361,56.923018 457.16214,56.522297 462.65708,56.522297 520.47462,56.522297 567.51369,101.18701 567.51369,156.08275 567.51211,164.01357 566.52766,171.88918 564.58873,179.49658 Z"
   id="path34"
   style="stroke-width:1;fill:#898989;fill-opacity:1" /><path
   fill="#00878f"
   d="M 409.67975,80.220105 407.45054,76.198687 C 363.06191,100.8068 337.0781,148.97546 332.31834,158.38296 L 327.61854,167.9498 322.64738,165.50603 320.59801,170.05753 338.23609,177.97731 346.14325,160.36764 C 350.79414,151.74896 386.90802,88.166704 445.019,77.459226 L 443.27097,67.968112 C 431.86144,70.075846 420.58286,74.180879 409.67975,80.220105 Z"
   id="path35"
   style="stroke-width:1;fill:#6b6b6b;fill-opacity:1" /><path
   fill="#62aeb2"
   d="M 462.70914,293.34893 C 455.422,293.34893 447.99918,292.81568 440.64735,291.76497 407.82444,287.07779 377.37115,271.82669 350.12996,246.43765 L 361.99385,233.70921 C 386.58303,256.62766 413.87471,270.36579 443.10848,274.54182 450.9194,275.65564 458.7666,276.0816 466.47656,275.90017 L 466.88359,293.29687 C 465.49053,293.33 464.1022,293.34893 462.70914,293.34893 Z"
   id="path36"
   style="stroke-width:1;fill:#b4b4b4;fill-opacity:0.99215686" /></svg>
