<?xml version="1.0" encoding="UTF-8" standalone="no"?>
<!-- Generator: Adobe Illustrator 16.0.0, SVG Export Plug-In . SVG Version: 6.00 Build 0)  -->

<svg
   version="1.0"
   x="0px"
   y="0px"
   width="622.07654"
   height="311.72061"
   viewBox="0 0 622.07654 311.7206"
   enable-background="new 0 0 841.891 595.275"
   xml:space="preserve"
   id="svg136"
   sodipodi:docname="ArduinoCommunityLogo_Light.svg"
   inkscape:version="1.4.3 (0d15f75, 2025-12-25)"
   xmlns:inkscape="http://www.inkscape.org/namespaces/inkscape"
   xmlns:sodipodi="http://sodipodi.sourceforge.net/DTD/sodipodi-0.dtd"
   xmlns="http://www.w3.org/2000/svg"
   xmlns:svg="http://www.w3.org/2000/svg"><defs
   id="defs136" /><sodipodi:namedview
   id="namedview136"
   pagecolor="#ffffff"
   bordercolor="#666666"
   borderopacity="1.0"
   inkscape:showpageshadow="2"
   inkscape:pageopacity="0.0"
   inkscape:pagecheckerboard="0"
   inkscape:deskcolor="#d1d1d1"
   inkscape:zoom="1.4312712"
   inkscape:cx="282.96524"
   inkscape:cy="190.73953"
   inkscape:window-width="1920"
   inkscape:window-height="1057"
   inkscape:window-x="-8"
   inkscape:window-y="-8"
   inkscape:window-maximized="1"
   inkscape:current-layer="svg136" />



<g
   id="g136"
   transform="translate(-79.055191,-87.243562)"><g
     id="LOGO"
     transform="matrix(1.5776452,0,0,1.5776452,-257.39658,-225.12861)"
     style="stroke-width:0.633856">
	<g
   id="g36"
   style="stroke-width:0.633856">
		<path
   fill="#62aeb2"
   d="M 345.23,245.898 346.102,244.286 C 338.016,239.979 329.698,237.153 321.333,235.958 317.868,235.467 314.377,235.218 310.956,235.218 283.358,235.218 258.668,251.819 249.516,276.526 L 258.399,279.815 C 266.18,258.806 287.302,244.691 310.957,244.691 313.935,244.691 316.978,244.908 319.999,245.337 336.036,247.628 351.446,256.376 365.802,271.337 L 371.031,266.318 C 363.967,258.769 355.346,251.37 345.23,245.898 Z"
   id="path1"
   style="stroke-width:0.633856" />
		<path
   fill="#62aeb2"
   d="M 280.472,356.516 C 256.683,345.457 241.312,322.07 241.312,296.934 241.312,284.218 245.039,271.912 252.088,261.346 254.77,257.322 257.939,253.55 261.504,250.136 L 265.871,254.698 C 262.638,257.792 259.768,261.207 257.341,264.848 250.986,274.374 247.626,285.468 247.626,296.933 247.626,319.971 261.231,340.608 283.134,350.788 Z"
   id="path2"
   style="stroke-width:0.633856" />
		<path
   fill="#62aeb2"
   d="M 396.354,304.689 393.616,298.3 C 393.366,297.807 393.021,297.146 392.603,296.367 387.808,305.447 362.582,349.783 321.105,355.706 317.718,356.19 314.225,357.298 310.922,357.298 301.262,357.294 291.996,355.261 283.384,351.254 L 280.222,357.049 C 289.832,361.52 300.16,363.788 310.927,363.792 314.578,363.792 318.324,363.521 322.061,362.987 362.081,357.271 387.34,320.67 396.643,304.564 Z"
   id="path3"
   style="stroke-width:0.633856" />
		<path
   fill="#e47128"
   d="M 405.128,335.549 C 397.014,346.575 388.06,356.121 378.454,363.92 L 380.772,366.774 C 390.271,359.061 399.146,349.704 407.213,338.927 423.722,361.452 451.19,388.172 491.007,393.856 L 491.95,387.253 C 451.254,381.442 423.997,352.667 407.79,328.178 407.027,327.022 405.128,335.549 405.128,335.549 Z"
   id="path4"
   style="stroke-width:0.633856" />
		<path
   fill="#e5ad24"
   d="M 511.482,362.999 C 506.226,363.343 500.877,363.144 495.511,362.377 483.283,360.629 471.433,355.747 460.288,347.866 L 456.823,352.764 C 468.752,361.2 481.482,366.432 494.661,368.316 498.627,368.883 502.628,369.17 506.552,369.17 508.203,369.17 509.845,369.107 511.482,369.007 Z"
   id="path5"
   style="stroke-width:0.633856" />
		<path
   fill="#e47128"
   d="M 399.523,303.331 396.353,304.689 393.615,298.3 C 391.564,294.262 383.879,280.041 371.031,266.317 L 365.802,271.336 C 377.07,283.078 383.839,294.717 386.227,299.176 L 395.839,315.95 404.056,311.239 Z"
   id="path6"
   style="stroke-width:0.633856" />
		<path
   fill="#62aeb2"
   d="M 506.553,357.661 C 503.148,357.661 499.695,357.413 496.29,356.923 453.483,350.81 428.439,307.347 423.853,298.695 L 430.476,295.185 C 433.104,300.142 457.306,343.784 497.354,349.503 500.41,349.942 503.502,350.166 506.552,350.166 V 357.661 Z"
   id="path7"
   style="stroke-width:0.633856" />
		<path
   fill="#00878f"
   d="M 566.199,280.234 C 563.346,270.97 558.024,262.422 550.806,255.513 541.347,246.465 529.335,240.681 516.068,238.787 L 517.281,230.295 C 532.332,232.442 545.975,239.02 556.737,249.315 565.009,257.233 571.116,267.051 574.398,277.709 Z"
   id="path8"
   style="stroke-width:0.633856" />
		<path
   fill="#00878f"
   d="M 451.607,252.945 447.564,248.341 C 462.124,235.554 477.966,227.863 494.653,225.483 498.593,224.92 502.587,224.634 506.52,224.634 526.84,224.634 545.877,232.141 560.124,245.773 L 555.888,250.201 C 542.787,237.666 525.255,230.762 506.521,230.762 502.876,230.762 499.175,231.028 495.52,231.55 480.031,233.759 465.257,240.958 451.607,252.945 Z"
   id="path9"
   style="stroke-width:0.633856" />
		<path
   fill="#e5ad24"
   d="M 420.48,312.622 399.227,302.512 404.282,291.885 C 407.565,284.986 419.973,260.981 441.822,241.8 L 450.666,234.036 466.193,251.724 457.349,259.488 C 438.405,276.118 427.524,297.816 425.536,301.997 Z"
   id="path10"
   style="stroke-width:0.633856" />
		<path
   fill="#00878f"
   d="M 240.581,325.311 C 236.656,316.354 234.666,306.806 234.666,296.934 234.666,277.379 242.567,259.054 256.914,245.332 261.926,240.538 267.582,236.449 273.726,233.179 L 277.181,239.669 C 271.631,242.624 266.522,246.316 261.995,250.647 249.113,262.967 242.018,279.406 242.018,296.934 242.018,305.785 243.8,314.338 247.314,322.36 Z"
   id="path11"
   style="stroke-width:0.633856" />
		<path
   fill="#e5ad24"
   d="M 265.907,254.738 261.468,250.095 C 274.605,237.533 292.181,230.615 310.957,230.615 314.617,230.615 318.329,230.88 321.989,231.402 330.953,232.683 339.801,235.66 348.286,240.248 L 345.231,245.898 C 337.415,241.672 329.29,238.935 321.08,237.761 317.721,237.282 314.314,237.038 310.957,237.038 293.843,237.039 277.844,243.325 265.907,254.738 Z"
   id="path12"
   style="stroke-width:0.633856" />
		<path
   fill="#e5ad24"
   d="M 221.919,296.934 H 217.997 C 217.997,272.788 227.726,250.185 245.392,233.289 L 248.103,236.123 C 231.218,252.272 221.919,273.868 221.919,296.934 Z"
   id="path13"
   style="stroke-width:0.633856" />
		<path
   fill="#00878f"
   d="M 377.118,229.892 C 361.271,217.224 343.901,209.468 325.49,206.839 320.668,206.151 315.778,205.803 310.957,205.803 291.884,205.803 273.573,211.166 258.004,221.314 L 255.149,216.933 C 271.569,206.23 290.868,200.573 310.958,200.573 316.025,200.573 321.164,200.939 326.23,201.662 345.579,204.425 363.798,212.549 380.384,225.807 Z"
   id="path14"
   style="stroke-width:0.633856" />
		<path
   fill="#00878f"
   d="M 413.901,263.84 403.583,256.559 C 420.089,233.163 448.607,204.013 490.729,197.999 L 492.514,210.501 C 454.851,215.879 428.976,242.475 413.901,263.84 Z"
   id="path15"
   style="stroke-width:0.633856" />
		<path
   fill="#62aeb2"
   d="M 425.715,265.347 418.414,259.827 C 432.86,240.717 457.476,216.88 492.707,211.853 497.289,211.198 501.937,210.866 506.52,210.866 518.394,210.866 529.896,213.032 540.707,217.304 L 537.344,225.816 C 527.609,221.969 517.239,220.019 506.521,220.019 502.37,220.019 498.158,220.321 494.001,220.915 461.855,225.501 439.124,247.608 425.715,265.347 Z"
   id="path16"
   style="stroke-width:0.633856" />
		<path
   fill="#62aeb2"
   d="M 410.996,280.249 400.781,276.091 403.818,268.628 404.08,268.215 C 417.268,247.341 446.188,211.353 491.707,204.859 496.622,204.157 501.606,203.801 506.52,203.801 V 214.83 C 502.126,214.83 497.666,215.149 493.266,215.777 454.422,221.319 428.573,250.235 413.663,273.695 Z"
   id="path17"
   style="stroke-width:0.633856" />
		<path
   fill="#62aeb2"
   d="M 410.822,268.945 405.537,262.461 C 396.754,250.014 386.918,239.399 376.302,230.912 L 381.2,224.784 C 392.36,233.706 402.679,244.822 411.867,257.824 L 416.898,263.982 Z"
   id="path18"
   style="stroke-width:0.633856" />
		<path
   fill="#e47128"
   d="M 573.146,232.169 C 555.377,215.166 531.716,205.803 506.521,205.803 501.704,205.803 496.815,206.152 491.991,206.839 L 491.253,201.661 C 496.32,200.938 501.458,200.572 506.522,200.572 533.071,200.572 558.016,210.451 576.762,228.389 Z"
   id="path19"
   style="stroke-width:0.633856" />
		<path
   fill="#00878f"
   d="M 324.215,378.084 322.309,364.738 C 375.671,357.12 402.26,294.965 402.522,294.338 403.704,291.497 432.227,224.487 493.267,215.776 L 495.171,229.122 C 441.646,236.76 415.227,298.894 414.966,299.521 413.78,302.371 385.239,369.371 324.215,378.084 Z"
   id="path20"
   style="stroke-width:0.633856" />
		<path
   fill="#00878f"
   d="M 268.146,364.592 273.999,354.52 C 288.361,362.864 305.005,365.977 322.134,363.526 L 323.784,375.052 C 334.942,373.459 345.844,369.639 356.185,363.699 L 346.419,346.695 C 338.243,351.391 329.693,354.401 321.006,355.641 317.638,356.122 314.247,356.366 310.922,356.366 293.941,356.365 278.067,350.123 266.224,338.79 260.488,333.3 256.014,326.944 252.929,319.901 L 236.096,327.274 C 240.115,336.445 245.977,344.856 253.515,352.07 L 252.667,352.956 C 257.382,357.468 262.58,361.354 268.146,364.592 Z"
   id="path21"
   style="stroke-width:0.633856" />
		<path
   fill="#00878f"
   d="M 310.927,381.103 C 287.541,381.102 265.594,372.421 249.122,356.662 L 252.823,352.794 C 268.294,367.597 288.927,375.749 310.921,375.75 315.161,375.75 319.475,375.44 323.748,374.829 367.755,368.544 394.355,331.304 406.33,309.572 L 409.367,302.384 414.299,304.468 411.088,312.032 C 398.664,334.62 370.895,373.504 324.506,380.128 319.982,380.774 315.414,381.103 310.927,381.103 Z"
   id="path22"
   style="stroke-width:0.633856" />
		<path
   fill="#00878f"
   d="M 310.927,395.585 C 283.788,395.581 258.286,385.473 239.112,367.122 L 245.891,360.038 C 263.232,376.635 286.327,385.776 310.922,385.78 315.641,385.78 320.432,385.436 325.165,384.758 343.509,382.137 360.787,374.326 376.522,361.542 L 382.704,369.151 C 365.57,383.071 346.679,391.588 326.554,394.463 321.363,395.207 316.105,395.585 310.927,395.585 Z"
   id="path23"
   style="stroke-width:0.633856" />
		<path
   fill="#e5ad24"
   d="M 325.601,387.789 324.388,379.297 C 363.921,373.652 390.077,344.238 405.071,320.525 405.53,319.729 409.567,312.724 411.113,309.784 L 418.707,313.776 C 416.995,317.031 412.642,324.57 412.457,324.889 L 412.37,325.035 C 396.417,350.288 368.415,381.676 325.601,387.789 Z"
   id="path24"
   style="stroke-width:0.633856" />
		<path
   fill="#62aeb2"
   d="M 268.458,364.057 C 243.845,349.765 229.151,324.672 229.151,296.934 229.151,292.898 229.468,288.851 230.095,284.907 L 236.146,285.868 C 235.571,289.496 235.278,293.219 235.278,296.934 235.278,322.463 248.832,345.576 271.534,358.758 Z"
   id="path25"
   style="stroke-width:0.633856" />
		<path
   fill="#e47128"
   d="M 238.933,286.309 227.31,284.465 C 230.674,263.27 242.39,244.541 260.301,231.73 278.492,218.717 301.143,213.35 324.097,216.625 329.266,217.364 334.415,218.57 339.404,220.209 L 335.73,231.389 C 331.395,229.965 326.921,228.917 322.433,228.275 281.706,222.478 245.02,247.957 238.933,286.309 Z"
   id="path26"
   style="stroke-width:0.633856" />
		<path
   fill="#e5ad24"
   d="M 237.418,368.893 C 226.687,358.626 218.56,346.567 213.262,333.05 L 226.953,327.683 C 231.467,339.198 238.408,349.488 247.584,358.267 Z"
   id="path27"
   style="stroke-width:0.633856" />
		<path
   fill="#62aeb2"
   d="M 310.927,388.842 C 285.533,388.839 261.686,379.396 243.77,362.251 227.463,346.646 217.574,325.867 215.923,303.744 L 215.914,303.585 215.672,297.094 224.244,296.774 224.483,303.184 C 225.993,323.162 234.947,341.934 249.701,356.054 266.013,371.663 287.755,380.261 310.922,380.264 315.375,380.264 319.904,379.939 324.387,379.297 L 325.602,387.789 C 320.718,388.487 315.78,388.842 310.927,388.842 Z"
   id="path28"
   style="stroke-width:0.633856" />
		<path
   fill="#e5ad24"
   d="M 350.312,358.852 347.647,354.208 349.968,352.876 C 380.242,335.497 397.154,302.274 400.237,295.791 L 401.386,293.374 406.22,295.673 405.071,298.09 C 401.869,304.825 384.29,339.348 352.634,357.519 Z"
   id="path29"
   style="stroke-width:0.633856" />
		<path
   fill="#00878f"
   d="M 417.194,293.418 C 416.926,292.775 415.017,288.272 411.386,281.689 L 412.749,280.938 C 400.122,258.024 371.902,218.58 324.776,211.853 320.192,211.198 315.542,210.866 310.956,210.866 V 220.018 C 315.11,220.018 319.324,220.32 323.482,220.914 328.577,221.642 333.426,222.809 338.053,224.313 L 334.705,234.492 C 378.205,248.8 400.08,299.946 400.291,300.448 401.497,303.347 430.54,371.567 492.924,380.471 L 495.51,362.35 C 443.533,354.931 417.448,294.022 417.194,293.418 Z"
   id="path30"
   style="stroke-width:0.633856" />
		<path
   fill="#e5ad24"
   d="M 588.917,296.934 H 581.563 C 581.563,276.684 572.628,257.319 557.049,243.804 540.313,229.285 517.604,222.831 494.737,226.089 L 493.7,218.81 C 518.673,215.246 543.521,222.333 561.868,238.249 579.058,253.161 588.917,274.551 588.917,296.934 Z"
   id="path31"
   style="stroke-width:0.633856" />
		<rect
   x="301.64801"
   y="266.091"
   fill="#e5ad24"
   width="19.886999"
   height="61.699001"
   id="rect31"
   style="stroke-width:0.633856" />
		<rect
   x="280.74301"
   y="286.99799"
   fill="#00878f"
   width="61.695"
   height="19.889999"
   id="rect32"
   style="stroke-width:0.633856" />
		<path
   fill="#62aeb2"
   d="M 607.156,305.922 599.297,305.193 C 599.548,302.479 599.676,299.701 599.676,296.933 599.676,272.725 589.927,250.067 572.225,233.13 L 577.682,227.427 C 596.954,245.866 607.569,270.551 607.569,296.933 607.568,299.942 607.43,302.967 607.156,305.922 Z"
   id="path32"
   style="stroke-width:0.633856" />
		<path
   fill="#00878f"
   d="M 580.115,310.515 574.984,309.495 C 575.808,305.347 576.226,301.084 576.226,296.826 576.226,279.008 569.016,262.296 555.925,249.769 L 559.54,245.99 C 573.673,259.513 581.456,277.567 581.456,296.826 581.457,301.426 581.005,306.031 580.115,310.515 Z"
   id="path33"
   style="stroke-width:0.633856" />
		<path
   fill="#e47128"
   d="M 571.13,311.774 559.255,308.747 C 560.233,304.913 560.728,300.938 560.729,296.933 560.729,268.894 536.412,246.082 506.521,246.082 503.611,246.082 500.635,246.295 497.676,246.714 496.893,246.826 496.112,246.955 495.334,247.098 L 493.123,235.043 C 494.061,234.871 495,234.717 495.95,234.581 499.482,234.08 503.037,233.826 506.52,233.826 543.168,233.826 572.984,262.137 572.984,296.933 572.983,301.96 572.359,306.952 571.13,311.774 Z"
   id="path34"
   style="stroke-width:0.633856" />
		<path
   fill="#00878f"
   d="M 472.94,248.847 471.527,246.298 C 443.391,261.896 426.921,292.428 423.904,298.391 L 420.925,304.455 417.774,302.906 416.475,305.791 427.655,310.811 432.667,299.649 C 435.615,294.186 458.506,253.884 495.34,247.097 L 494.232,241.081 C 487,242.417 479.851,245.019 472.94,248.847 Z"
   id="path35"
   style="stroke-width:0.633856" />
		<path
   fill="#62aeb2"
   d="M 506.553,383.94 C 501.934,383.94 497.229,383.602 492.569,382.936 471.764,379.965 452.461,370.298 435.194,354.205 L 442.714,346.137 C 458.3,360.664 475.599,369.372 494.129,372.019 499.08,372.725 504.054,372.995 508.941,372.88 L 509.199,383.907 C 508.316,383.928 507.436,383.94 506.553,383.94 Z"
   id="path36"
   style="stroke-width:0.633856" />
	</g>
</g></g></svg>
