<?xml version="1.0" encoding="UTF-8" standalone="no"?>
<svg
   viewBox="0 0 64 64"
   version="1.1"
   id="svg3"
   sodipodi:docname="examples.svg"
   inkscape:version="1.4.3 (0d15f75, 2025-12-25)"
   xmlns:inkscape="http://www.inkscape.org/namespaces/inkscape"
   xmlns:sodipodi="http://sodipodi.sourceforge.net/DTD/sodipodi-0.dtd"
   xmlns="http://www.w3.org/2000/svg"
   xmlns:svg="http://www.w3.org/2000/svg">
  <defs
     id="defs3" />
  <sodipodi:namedview
     id="namedview3"
     pagecolor="#ffffff"
     bordercolor="#666666"
     borderopacity="1.0"
     inkscape:showpageshadow="2"
     inkscape:pageopacity="0.0"
     inkscape:pagecheckerboard="0"
     inkscape:deskcolor="#d1d1d1"
     inkscape:zoom="5.3790623"
     inkscape:cx="112.84495"
     inkscape:cy="79.195959"
     inkscape:window-width="1920"
     inkscape:window-height="1057"
     inkscape:window-x="-8"
     inkscape:window-y="-8"
     inkscape:window-maximized="1"
     inkscape:current-layer="svg3" />
  <rect
     x="4"
     y="4"
     width="56"
     height="56"
     rx="10"
     ry="10"
     fill="#008184"
     id="rect1" />
  <!-- Fond -->
  <!-- Tête du personnage -->
  <!-- Livre ouvert -->
  <!-- Accent turquoise clair au centre du livre -->
  <g
     id="g5"
     transform="matrix(1.2416753,0,0,1.236845,-7.2869085,0.6909675)"
     style="stroke-width:0.806935">
    <g
       id="g4"
       transform="matrix(0.77392297,0,0,0.77450437,-61.931725,19.432066)"
       style="stroke-width:1.04227">
      <path
         d="M 119.56835,-16.782389 C 119.50839,-16.776938 119.32577,-16.757859 119.16224,-16.744231 117.685,-16.599778 116.19958,-16.05467 114.9213,-15.187948 111.95319,-13.1765 110.39963,-9.6578278 110.91476,-6.1091747 111.23365,-3.9232916 112.29661,-1.971805 113.99189,-0.45367918 115.22929,0.65289002 116.87279,1.4460222 118.53264,1.7322039 119.13226,1.8384999 119.39664,1.8575787 120.15434,1.8575787 120.91204,1.8575787 121.17642,1.8384999 121.77604,1.7322039 125.09574,1.1571149 127.9085,-1.254988 128.99054,-4.4520464 129.95266,-7.2947846 129.50567,-10.393724 127.78585,-12.833081 126.23774,-15.024416 123.86925,-16.425343 121.17642,-16.744231 120.92567,-16.774212 119.76459,-16.801468 119.56835,-16.782389 Z"
         id="path1-4"
         style="fill:none;stroke:#00ffcc;stroke-width:1.91047;stroke-dasharray:none;stroke-opacity:1" />
      <path
         d="M 126.86315,3.9340316 C 125.56034,4.9234026 123.90594,5.6402196 122.26516,5.9236758 121.59196,6.040874 121.31668,6.0626783 120.41725,6.0626783 119.5478,6.0626783 119.42515,6.0545017 118.74922,5.9509312 117.15205,5.7110836 115.55761,5.0624051 114.20302,4.1084661 L 113.89231,3.8876974 113.6034,3.9340316 C 113.44532,3.961287 113.11008,4.0376021 112.85388,4.1002895 110.65436,4.6562997 108.68925,5.7792221 107.07573,7.3981929 105.09699,9.382386 103.88685,11.908962 103.54071,14.768053 103.46166,15.416732 103.45349,16.787678 103.52708,17.302805 103.67153,18.333059 103.9141,18.908148 104.39925,19.368765 104.86532,19.813028 105.5467,20.006541 106.50337,19.968383 107.23654,19.938402 106.75502,18.198261 108.65472,17.781253 110.88149,17.293381 110.53052,10.815376 111.87966,10.687276 112.4384,10.635491 129.07703,10.935531 129.63577,10.987316 130.98491,11.115416 130.99426,16.933333 133.22103,17.421205 135.12073,17.838213 134.57915,19.938402 135.31232,19.968383 136.00461,19.995639 136.50611,19.911147 136.96128,19.687653 137.43007,19.458707 137.81982,18.995366 138.02424,18.425728 138.22593,17.872443 138.3186,17.281001 138.34313,16.41973 138.43579,13.067316 137.11391,9.7721382 134.71271,7.3709375 132.78575,5.4439807 130.33004,4.2202133 127.63448,3.8440887 127.07302,3.7650481 127.08665,3.7623225 126.86315,3.9340316 Z"
         id="path2-5"
         style="fill:none;stroke:#00ffcc;stroke-width:1.91047;stroke-dasharray:none;stroke-opacity:1"
         sodipodi:nodetypes="ccsccccccccccccccccccscc" />
    </g>
    <g
       id="g3"
       transform="translate(-0.36086447,-0.0657277)"
       style="fill:#008184;fill-opacity:1;stroke-width:0.806935">
      <path
         d="M 20,32 Q 26,28 32,32 38,28 44,32 V 44 Q 38,40 32,44 26,40 20,44 Z"
         fill="none"
         stroke="#ffffff"
         stroke-width="2.01734"
         stroke-linejoin="round"
         id="path1"
         style="fill:#008184;fill-opacity:1" />
      <path
         d="M 32,32 V 44"
         stroke="#00ffcc"
         stroke-width="1.61387"
         stroke-linecap="round"
         id="path2"
         style="fill:#008184;fill-opacity:1;stroke:#ffffff" />
    </g>
  </g>
  <!-- Épaules / posture de lecture -->
</svg>
