<?xml version="1.0" encoding="UTF-8" standalone="no"?>
<svg
   viewBox="0 0 64 64"
   version="1.1"
   id="svg15"
   sodipodi:docname="libManager.svg"
   inkscape:version="1.4.3 (0d15f75, 2025-12-25)"
   xml:space="preserve"
   xmlns:inkscape="http://www.inkscape.org/namespaces/inkscape"
   xmlns:sodipodi="http://sodipodi.sourceforge.net/DTD/sodipodi-0.dtd"
   xmlns="http://www.w3.org/2000/svg"
   xmlns:svg="http://www.w3.org/2000/svg"><defs
     id="defs15" /><sodipodi:namedview
     id="namedview15"
     pagecolor="#ffffff"
     bordercolor="#666666"
     borderopacity="1.0"
     inkscape:showpageshadow="2"
     inkscape:pageopacity="0.0"
     inkscape:pagecheckerboard="0"
     inkscape:deskcolor="#d1d1d1"
     inkscape:zoom="4.7066795"
     inkscape:cx="110.48128"
     inkscape:cy="66.076307"
     inkscape:window-width="1920"
     inkscape:window-height="1057"
     inkscape:window-x="-8"
     inkscape:window-y="-8"
     inkscape:window-maximized="1"
     inkscape:current-layer="svg15" /><!-- Fond --><rect
     x="1.2579994"
     y="1.2579994"
     width="61.484001"
     height="61.484001"
     rx="10.000001"
     ry="10.000001"
     fill="#008184"
     id="rect1"
     style="stroke-width:1" /><!-- Carte électronique --><!-- Pastilles avec trous --><!-- Gauche --><!-- Droite --><!-- Pistes à 45° (couche top blanche) --><!-- Piste bottom (vert clair) --><!-- Sélecteur : rond turquoise clair --><g
     transform="matrix(0.00483171,0,0,-0.00483171,0.44909041,63.368601)"
     fill="#009688"
     stroke="none"
     id="g3"
     style="fill:#ffffff;stroke-width:27.5955"><path
       d="M 3835,9974 C 2405,9190 1181,8522 1115,8490 978,8424 921,8386 832,8297 591,8061 467,7702 500,7338 527,7039 619,6832 813,6637 L 921,6528 856,6468 C 734,6357 626,6191 566,6022 476,5770 472,5456 557,5195 613,5021 736,4834 865,4728 L 928,4676 887,4640 C 696,4480 566,4244 514,3965 494,3857 492,3648 510,3535 580,3090 867,2767 1287,2660 1330,2649 1592,2591 1870,2531 2324,2432 4445,1966 6320,1554 6887,1429 7036,1399 7080,1403 7132,1407 7292,1496 9685,2843 11687,3970 12241,4286 12264,4314 12307,4367 12313,4452 12277,4512 12229,4595 12126,4624 12037,4579 12014,4567 10884,3932 9525,3167 8167,2402 7048,1775 7039,1773 7030,1770 6457,1893 5764,2045 5072,2197 4168,2396 3755,2486 3343,2577 2688,2721 2300,2806 1912,2891 1533,2974 1457,2990 1263,3031 1172,3075 1065,3184 940,3309 881,3441 860,3642 841,3818 869,3979 945,4135 1034,4319 1176,4441 1338,4475 L 1404,4489 2109,4334 C 2497,4249 3274,4078 3835,3955 6079,3462 6693,3327 6865,3289 6977,3264 7060,3250 7085,3253 7115,3256 7755,3612 9669,4689 11068,5477 12223,6128 12235,6136 12247,6143 12267,6168 12279,6191 12308,6242 12305,6334 12273,6378 12221,6449 12133,6475 12058,6443 12034,6432 10897,5794 9530,5024 7857,4083 7037,3626 7020,3627 7006,3628 6496,3739 5885,3873 5275,4008 4019,4283 3095,4485 2171,4687 1379,4863 1335,4876 1100,4945 937,5128 875,5392 852,5488 852,5688 874,5789 920,5998 1034,6173 1187,6270 1254,6313 1360,6344 1418,6337 1458,6333 1906,6235 3858,5805 4019,5769 4167,5740 4186,5740 4229,5740 4291,5771 4318,5805 4383,5888 4363,6015 4277,6069 4256,6082 3947,6154 3355,6284 2865,6392 2290,6518 2075,6565 1861,6613 1602,6669 1502,6690 1258,6742 1179,6779 1065,6894 940,7019 882,7149 860,7350 848,7461 857,7584 887,7695 910,7784 982,7927 1037,7992 1119,8091 1256,8180 1326,8180 1342,8180 1534,8142 1751,8095 6463,7083 7048,6959 7085,6963 7115,6966 7742,7315 9668,8398 11066,9186 12220,9836 12233,9845 12269,9868 12300,9932 12300,9983 12300,10059 12269,10114 12208,10146 12194,10153 11814,10240 11363,10339 10913,10438 10023,10634 9385,10774 8747,10914 7845,11112 7379,11214 6903,11319 6512,11400 6484,11400 6438,11400 6292,11321 3835,9974 Z"
       id="path1-0"
       style="fill:#ffffff;stroke-width:27.5955" /><path
       d="M 12045,8293 C 12029,8285 10895,7647 9526,6877 L 7037,5477 6941,5497 C 6888,5508 6614,5568 6331,5630 5865,5732 5814,5742 5779,5731 5620,5683 5595,5476 5740,5402 5792,5376 7000,5109 7068,5108 7096,5108 7130,5118 7168,5138 7199,5155 8352,5803 9730,6578 11706,7691 12241,7996 12264,8024 12306,8075 12312,8160 12279,8220 12234,8300 12123,8334 12045,8293 Z"
       id="path2-9"
       style="fill:#ffffff;stroke-width:27.5955" /><path
       d="M 4610,5929 C 4610,5180 4613,4990 4623,4996 4629,5001 4725,5060 4834,5128 L 5033,5252 5079,5200 C 5257,5001 5486,4751 5493,4751 5497,4750 5500,5195 5500,5738 V 6727 L 5068,6799 C 4830,6838 4629,6870 4623,6870 4613,6870 4610,6675 4610,5929 Z"
       id="path3-4"
       style="fill:#ffffff;stroke-width:27.5955" /></g></svg>
