<?xml version="1.0" encoding="UTF-8" standalone="no"?>
<svg
   viewBox="0 0 64 64"
   version="1.1"
   id="svg15"
   sodipodi:docname="parameters.svg"
   inkscape:version="1.4.3 (0d15f75, 2025-12-25)"
   xml:space="preserve"
   xmlns:inkscape="http://www.inkscape.org/namespaces/inkscape"
   xmlns:sodipodi="http://sodipodi.sourceforge.net/DTD/sodipodi-0.dtd"
   xmlns="http://www.w3.org/2000/svg"
   xmlns:svg="http://www.w3.org/2000/svg"><defs
     id="defs15" /><sodipodi:namedview
     id="namedview15"
     pagecolor="#ffffff"
     bordercolor="#666666"
     borderopacity="1.0"
     inkscape:showpageshadow="2"
     inkscape:pageopacity="0.0"
     inkscape:pagecheckerboard="0"
     inkscape:deskcolor="#d1d1d1"
     inkscape:zoom="6.65625"
     inkscape:cx="47.774648"
     inkscape:cy="29.295775"
     inkscape:window-width="1920"
     inkscape:window-height="1057"
     inkscape:window-x="-8"
     inkscape:window-y="-8"
     inkscape:window-maximized="1"
     inkscape:current-layer="svg15" /><!-- Fond --><!-- Carte électronique --><!-- Pastilles avec trous --><!-- Gauche --><!-- Droite --><!-- Pistes à 45° (couche top blanche) --><!-- Piste bottom (vert clair) --><!-- Sélecteur : rond turquoise clair --><g
     id="g1"
     transform="matrix(2.193505,0,0,2.193505,115.0387,-17.69659)"
     style="stroke-width:0.455891"><path
       d="M -47.862783,9.6175751 C -47.978987,9.7388314 -47.978987,9.7590401 -47.913307,9.8802963 -47.872888,9.9560817 -47.216084,10.658356 -46.453181,11.441469 -45.038526,12.891489 -44.790963,13.199683 -44.85159,13.442195 -44.897061,13.629131 -45.417451,14.21015 -46.40771,15.185251 -47.347445,16.104777 -47.66069,16.367498 -47.847626,16.367498 -48.019406,16.367498 -48.37307,16.064358 -49.757409,14.70528 -51.076071,13.421985 -51.419629,13.149159 -51.576252,13.28052 -51.621723,13.320939 -51.65709,13.427037 -51.65709,13.523031 -51.65709,13.750387 -51.419629,14.826534 -51.081123,16.104777 L -50.813349,17.135453 -49.934242,18.019612 C -49.449217,18.504637 -49.019769,18.918929 -48.97935,18.94419 -48.933879,18.9644 -48.1154,19.171546 -47.160509,19.393849 L -45.417451,19.803088 -43.674395,21.561301 C -42.714451,22.526298 -40.243859,25.006996 -38.177451,27.078454 L -34.423564,30.847498 -34.074953,32.358148 C -33.882964,33.191784 -33.696028,33.985 -33.665714,34.116362 -33.61519,34.338664 -33.544457,34.414449 -32.650194,35.243032 -31.867082,35.975622 -31.654884,36.147401 -31.457843,36.202976 -31.089022,36.314128 -28.51233,37.016402 -28.330446,37.056821 -28.188979,37.087135 -28.143509,37.066927 -28.012148,36.935566 -27.855525,36.783995 -27.855525,36.778943 -27.941415,36.617268 -27.986886,36.526326 -28.598219,35.874574 -29.295441,35.162194 -29.997716,34.454868 -30.664625,33.752593 -30.780829,33.606074 -31.048603,33.267568 -31.058707,33.095788 -30.831352,32.782544 -30.58884,32.444037 -28.567905,30.433207 -28.365811,30.337213 -28.1233,30.215956 -27.855525,30.226061 -27.623118,30.367527 -27.517018,30.433207 -26.799587,31.105168 -26.031632,31.863018 -25.162629,32.711811 -24.576558,33.252411 -24.490668,33.272621 -24.38457,33.302934 -24.334046,33.282726 -24.258261,33.18673 -24.121848,33.014951 -24.152161,32.817911 -24.627082,31.019278 L -25.03632,29.478314 -25.976056,28.533528 C -26.67833,27.8262 -26.956209,27.583688 -27.072414,27.563479 -27.158303,27.548322 -27.941415,27.366437 -28.805365,27.164343 L -30.386746,26.800576 -35.898847,21.283423 -41.416,15.771322 -41.784821,14.235411 C -42.269846,12.24479 -42.300159,12.184163 -43.128743,11.416206 -43.472301,11.09791 -43.856279,10.744245 -43.982587,10.617937 -44.214996,10.400687 -44.2251,10.395634 -45.740801,9.9762904 -46.574437,9.7388314 -47.367655,9.5367376 -47.499015,9.5165275 -47.716266,9.4912667 -47.756684,9.501371 -47.862783,9.6175751 Z"
       id="path3"
       style="fill:#008184;fill-opacity:1;stroke:none;stroke-width:0.0607858" /><g
       id="g2"
       style="fill:#008184;fill-opacity:1;stroke-width:0.325574"
       transform="matrix(1.4002688,0,0,1.4002688,-92.402121,-32.467127)"><path
         d="M 46.30874,29.838243 45.244344,30.599557 44.973735,31.368086 44.703126,32.133008 42.902675,33.93346 41.102223,35.733912 41.257372,35.917926 C 41.419737,36.109156 42.184659,36.823564 42.224348,36.823564 42.267645,36.823564 43.469149,35.632884 44.627356,34.438596 L 45.77113,33.262349 46.586565,32.995348 47.402,32.728348 47.65096,32.367536 C 47.791677,32.169089 48.123624,31.678385 48.390625,31.277883 L 48.881329,30.552651 48.747829,30.390286 C 48.635977,30.253177 48.22826,29.859892 47.553541,29.239296 L 47.373135,29.073322 Z"
         id="path2"
         style="fill:#008184;fill-opacity:1;stroke:none;stroke-width:0.0434101" /><path
         d="M 38.421389,34.817449 38.100267,35.124139 40.47441,37.498282 42.848553,39.872425 43.191324,39.511613 43.530487,39.150801 43.234622,38.858543 C 40.30122,35.975656 38.80385,34.514367 38.778593,34.514367 38.760553,34.514367 38.601795,34.651476 38.421389,34.817449 Z"
         id="path4"
         style="fill:#008184;fill-opacity:1;stroke:none;stroke-width:0.0434101" /><path
         d="M 32.197382,41.683701 C 30.9165,42.9718 29.758293,44.158872 29.624793,44.328453 29.195427,44.87328 29.025845,45.349551 29.025845,46.020662 29.025845,46.406731 29.108832,46.702596 29.30367,47.023719 29.595928,47.503599 30.433012,48.340683 30.909284,48.632941 31.6273,49.065915 32.641181,49.033442 33.377238,48.553562 33.694752,48.347899 33.965361,48.088114 36.400842,45.670674 L 38.634269,43.455288 38.222943,43.043963 37.811617,42.636245 36.873506,43.549099 C 36.357545,44.050628 35.863232,44.512468 35.776638,44.573806 35.487988,44.783077 35.156041,44.707306 34.997284,44.397008 34.907081,44.227426 34.928729,44.075885 35.073054,43.863006 35.145217,43.75837 35.607056,43.256842 36.104976,42.748097 L 37.003398,41.828026 36.581248,41.402268 36.15549,40.97651 35.993125,41.124443 C 35.902922,41.20743 35.56015,41.528552 35.231811,41.842459 33.889591,43.116125 33.770523,43.184679 33.456616,42.892422 33.330332,42.773354 33.308683,42.730056 33.290643,42.567691 33.279818,42.419758 33.290643,42.35842 33.359197,42.246568 33.402495,42.170798 33.774131,41.766688 34.181848,41.351754 34.589566,40.933212 35.015324,40.49663 35.130784,40.377562 L 35.340055,40.161075 34.932337,39.753357 34.52462,39.349248 Z"
         id="path5"
         style="fill:#008184;fill-opacity:1;stroke:none;stroke-width:0.0434101" /></g></g></svg>
