<?xml version="1.0" encoding="UTF-8" standalone="no"?>
<svg
   viewBox="0 0 64 64"
   version="1.1"
   id="svg15"
   sodipodi:docname="parameters.svg"
   inkscape:version="1.4.3 (0d15f75, 2025-12-25)"
   xml:space="preserve"
   xmlns:inkscape="http://www.inkscape.org/namespaces/inkscape"
   xmlns:sodipodi="http://sodipodi.sourceforge.net/DTD/sodipodi-0.dtd"
   xmlns="http://www.w3.org/2000/svg"
   xmlns:svg="http://www.w3.org/2000/svg"><defs
     id="defs15" /><sodipodi:namedview
     id="namedview15"
     pagecolor="#ffffff"
     bordercolor="#666666"
     borderopacity="1.0"
     inkscape:showpageshadow="2"
     inkscape:pageopacity="0.0"
     inkscape:pagecheckerboard="0"
     inkscape:deskcolor="#d1d1d1"
     inkscape:zoom="6.65625"
     inkscape:cx="47.774648"
     inkscape:cy="29.295775"
     inkscape:window-width="1920"
     inkscape:window-height="1057"
     inkscape:window-x="-8"
     inkscape:window-y="-8"
     inkscape:window-maximized="1"
     inkscape:current-layer="svg15" /><!-- Fond --><!-- Carte électronique --><!-- Pastilles avec trous --><!-- Gauche --><!-- Droite --><!-- Pistes à 45° (couche top blanche) --><!-- Piste bottom (vert clair) --><!-- Sélecteur : rond turquoise clair --><g
     id="g6"
     transform="matrix(1.4002688,0,0,1.4002688,-22.542966,-23.152573)"
     style="stroke-width:0.714148"><circle
       style="fill:#c0c0c0;fill-opacity:1;stroke-width:16.1949;stroke-linecap:round"
       id="path6"
       cx="39.061031"
       cy="39.436615"
       r="15.774646" /><path
       d="M 33.525171,16.942823 C 32.839628,17.087147 31.230406,17.595892 30.360849,17.94588 29.065534,18.465449 27.066636,19.497372 26.691391,19.843751 L 26.568715,19.955603 26.626445,20.226212 C 26.658918,20.374145 26.860973,21.26535 27.081068,22.20707 27.301164,23.145181 27.470745,23.935359 27.459921,23.960616 27.449097,23.989481 27.207353,24.205968 26.918703,24.444104 26.013065,25.198201 24.786304,26.421354 24.032207,27.323384 23.804895,27.597601 23.5848,27.842953 23.541503,27.86821 23.462124,27.918724 22.845135,27.792439 20.582844,27.269262 19.890085,27.106897 19.504016,27.031126 19.475151,27.056383 19.316394,27.179059 18.425188,28.766632 17.977782,29.737216 17.497902,30.76553 16.989157,32.197954 16.635561,33.507702 16.523709,33.919027 16.433506,34.276231 16.433506,34.308704 16.433506,34.370042 17.02163,34.756111 18.724662,35.81329 19.341651,36.195751 19.864828,36.527698 19.893693,36.552955 19.936991,36.596252 19.933383,36.711712 19.875653,37.335917 19.778233,38.364231 19.778233,40.61209 19.872045,41.351754 19.908126,41.62958 19.947815,41.93627 19.955031,42.037297 L 19.973072,42.217703 19.186502,42.701191 C 17.966957,43.455288 16.491236,44.371751 16.458763,44.400616 16.372168,44.476386 17.140698,46.976813 17.606145,48.13502 18.067985,49.278794 19.085474,51.234395 19.460719,51.68541 L 19.558138,51.804478 21.560645,51.328206 23.559543,50.851934 23.685827,51.007084 C 24.883723,52.45394 25.709983,53.301848 26.839324,54.247175 27.409407,54.723447 27.524867,54.846123 27.49961,54.954367 27.492394,54.994056 27.355285,55.603828 27.19292,56.307412 27.034163,57.010995 26.842932,57.869728 26.767162,58.216107 L 26.633661,58.84392 26.738297,58.930515 C 27.218177,59.3238 29.144913,60.319641 30.335593,60.795913 31.161852,61.124252 32.731384,61.629389 33.481873,61.813403 L 33.867942,61.907214 33.976186,61.802579 C 34.124119,61.661862 34.484931,61.117036 35.408609,59.644923 36.15549,58.447027 36.202396,58.382081 36.299815,58.385689 36.357545,58.389297 36.606505,58.418162 36.855465,58.450635 38.13274,58.613 39.547123,58.613 40.983155,58.457851 41.441386,58.407338 41.813022,58.367648 41.81663,58.374865 41.928482,58.569703 43.855218,61.669078 43.916556,61.752065 44.003151,61.867525 44.021192,61.871133 44.176341,61.853092 44.649005,61.791754 46.478321,61.214455 47.607663,60.76344 48.874113,60.261911 50.533848,59.428436 51.222999,58.948556 51.360108,58.854745 51.363716,58.847528 51.342067,58.688771 51.331243,58.598568 51.121972,57.685714 50.87662,56.657399 L 50.432821,54.784785 50.815282,54.474487 C 51.735352,53.727606 52.922424,52.580224 53.571885,51.815302 53.77394,51.577166 54.055373,51.26326 54.199698,51.111719 L 54.459483,50.84111 54.776997,50.906056 C 54.950187,50.942137 55.830568,51.140584 56.732598,51.349855 57.63102,51.555518 58.395942,51.725099 58.432023,51.725099 58.612429,51.725099 59.882487,49.26797 60.467003,47.781424 60.87472,46.749502 61.41233,44.988739 61.448411,44.562981 L 61.47006,44.346494 60.250515,43.588789 C 58.785619,42.679543 58.229968,42.315122 58.096468,42.170798 L 57.99544,42.062554 58.05317,41.402268 C 58.175846,39.991493 58.161414,37.98177 58.017089,37.02201 57.988224,36.834388 57.973792,36.65759 57.984616,36.628725 58.027914,36.516874 58.47532,36.221008 60.445354,34.997855 L 61.433979,34.388083 61.41233,34.153555 C 61.361816,33.525742 60.679882,31.422208 60.106191,30.126893 59.662392,29.123836 58.735105,27.326992 58.525834,27.063599 L 58.446455,26.962572 58.157806,27.027518 C 57.872764,27.088856 56.620747,27.381114 55.152242,27.727493 L 54.383712,27.911507 54.307942,27.814088 C 53.496115,26.771341 52.088948,25.328093 51.064242,24.483793 50.710646,24.195144 50.425605,23.942575 50.421997,23.917319 50.421997,23.892062 50.598794,23.098275 50.815282,22.14934 51.342067,19.847359 51.320418,19.955603 51.284337,19.894265 51.179702,19.706643 49.541615,18.804613 48.311246,18.259786 47.019539,17.686095 44.851059,16.975296 44.143868,16.888701 L 43.945421,16.867052 43.241838,17.996394 C 42.408362,19.335006 41.776941,20.294766 41.704779,20.323631 41.679522,20.334455 41.351183,20.312807 40.979547,20.280334 39.586812,20.157658 37.94151,20.175698 36.512694,20.334455 36.371977,20.348888 36.231261,20.34528 36.198788,20.327239 36.090544,20.273117 35.874057,19.948387 34.939554,18.451017 34.441633,17.650014 34.008659,16.968079 33.976186,16.931998 33.911239,16.859836 33.925672,16.859836 33.525171,16.942823 Z M 39.796083,23.798251 C 40.842438,23.841548 41.401697,23.902886 42.10528,24.054427 45.955144,24.866254 49.357601,27.067207 51.670406,30.245961 52.298219,31.108302 52.893559,32.201562 53.398696,33.410282 54.228563,35.412789 54.582159,37.187984 54.582159,39.349248 54.582159,41.153308 54.336807,42.686759 53.777548,44.364535 52.02761,49.621565 47.618487,53.518335 42.10528,54.68015 41.055317,54.903853 40.680073,54.943542 39.442487,54.961583 38.183254,54.983232 37.302872,54.939934 36.595681,54.824474 31.504623,53.998215 27.286731,50.931313 25.035264,46.421163 23.905923,44.16248 23.447691,42.35842 23.375529,39.886858 23.306975,37.61735 23.628097,35.676182 24.37137,33.810784 25.092994,32.006724 25.879564,30.657287 26.929527,29.408877 29.123264,26.807423 31.984503,25.010579 35.224595,24.198752 36.729181,23.819899 37.890996,23.718872 39.796083,23.798251 Z"
       id="path1"
       style="fill:#008184;fill-opacity:1;stroke:none;stroke-width:0.0952203" /><path
       d="M 31.807706,30.054731 C 31.724719,30.141326 31.724719,30.155758 31.771624,30.242353 31.800489,30.296475 32.269545,30.798003 32.814371,31.357262 33.824645,32.392792 34.001442,32.612888 33.958145,32.786078 33.925672,32.919578 33.554036,33.334512 32.846844,34.030879 32.175734,34.687557 31.95203,34.875179 31.81853,34.875179 31.695854,34.875179 31.443285,34.658692 30.454661,33.688108 29.512941,32.771645 29.267589,32.576807 29.155737,32.670618 29.123264,32.699483 29.098007,32.775253 29.098007,32.843807 29.098007,33.006173 29.267589,33.774702 29.509333,34.687557 L 29.700563,35.423613 30.328376,36.055034 C 30.674756,36.401414 30.981446,36.69728 31.010311,36.71532 31.042784,36.729753 31.6273,36.877686 32.309234,37.036443 L 33.554036,37.328701 34.798837,38.584326 C 35.48438,39.273477 37.24875,41.045064 38.724472,42.524393 L 41.405305,45.216051 41.654265,46.294879 C 41.791374,46.890219 41.924874,47.456693 41.946523,47.550505 41.982604,47.709262 42.033118,47.763384 42.671755,48.355115 43.231013,48.878293 43.382554,49.000969 43.523271,49.040658 43.786664,49.120037 45.626805,49.621565 45.756697,49.65043 45.857725,49.672079 45.890198,49.657647 45.984009,49.563836 46.095861,49.455592 46.095861,49.451984 46.034523,49.336524 46.00205,49.271578 45.565467,48.80613 45.067547,48.297385 44.566018,47.792249 44.089746,47.29072 44.006759,47.186084 43.815529,46.94434 43.808313,46.821664 43.970678,46.597961 44.143868,46.356217 45.587116,44.920185 45.731441,44.851631 45.90463,44.765036 46.095861,44.772252 46.261834,44.87328 46.337605,44.920185 46.849958,45.400065 47.398392,45.941283 48.018989,46.547447 48.437531,46.933516 48.498869,46.947949 48.574639,46.969597 48.61072,46.955165 48.664842,46.88661 48.762261,46.763934 48.740613,46.623218 48.401449,45.338727 L 48.109192,44.23825 47.438081,43.563532 C 46.936553,43.058395 46.738106,42.885205 46.655119,42.870773 46.593781,42.859949 46.034523,42.730056 45.417534,42.585731 L 44.288193,42.325947 40.351734,38.38588 36.411667,34.449421 36.148274,33.352552 C 35.801894,31.930953 35.780246,31.887656 35.188514,31.339221 34.943162,31.11191 34.668945,30.859341 34.578742,30.769138 34.412768,30.613989 34.405552,30.610381 33.323116,30.310907 32.727776,30.141326 32.161301,29.997001 32.06749,29.982568 31.912341,29.964528 31.883476,29.971744 31.807706,30.054731 Z"
       id="path3"
       style="fill:#00ffcc;fill-opacity:1;stroke:none;stroke-width:0.0952203" /><g
       id="g2"
       style="fill:#ffffff;stroke-width:0.714148"><path
         d="M 46.30874,29.838243 45.244344,30.599557 44.973735,31.368086 44.703126,32.133008 42.902675,33.93346 41.102223,35.733912 41.257372,35.917926 C 41.419737,36.109156 42.184659,36.823564 42.224348,36.823564 42.267645,36.823564 43.469149,35.632884 44.627356,34.438596 L 45.77113,33.262349 46.586565,32.995348 47.402,32.728348 47.65096,32.367536 C 47.791677,32.169089 48.123624,31.678385 48.390625,31.277883 L 48.881329,30.552651 48.747829,30.390286 C 48.635977,30.253177 48.22826,29.859892 47.553541,29.239296 L 47.373135,29.073322 Z"
         id="path2"
         style="fill:#ffffff;fill-opacity:1;stroke:none;stroke-width:0.0952203" /><path
         d="M 38.421389,34.817449 38.100267,35.124139 40.47441,37.498282 42.848553,39.872425 43.191324,39.511613 43.530487,39.150801 43.234622,38.858543 C 40.30122,35.975656 38.80385,34.514367 38.778593,34.514367 38.760553,34.514367 38.601795,34.651476 38.421389,34.817449 Z"
         id="path4"
         style="fill:#ffffff;fill-opacity:1;stroke:none;stroke-width:0.0952203" /><path
         d="M 32.197382,41.683701 C 30.9165,42.9718 29.758293,44.158872 29.624793,44.328453 29.195427,44.87328 29.025845,45.349551 29.025845,46.020662 29.025845,46.406731 29.108832,46.702596 29.30367,47.023719 29.595928,47.503599 30.433012,48.340683 30.909284,48.632941 31.6273,49.065915 32.641181,49.033442 33.377238,48.553562 33.694752,48.347899 33.965361,48.088114 36.400842,45.670674 L 38.634269,43.455288 38.222943,43.043963 37.811617,42.636245 36.873506,43.549099 C 36.357545,44.050628 35.863232,44.512468 35.776638,44.573806 35.487988,44.783077 35.156041,44.707306 34.997284,44.397008 34.907081,44.227426 34.928729,44.075885 35.073054,43.863006 35.145217,43.75837 35.607056,43.256842 36.104976,42.748097 L 37.003398,41.828026 36.581248,41.402268 36.15549,40.97651 35.993125,41.124443 C 35.902922,41.20743 35.56015,41.528552 35.231811,41.842459 33.889591,43.116125 33.770523,43.184679 33.456616,42.892422 33.330332,42.773354 33.308683,42.730056 33.290643,42.567691 33.279818,42.419758 33.290643,42.35842 33.359197,42.246568 33.402495,42.170798 33.774131,41.766688 34.181848,41.351754 34.589566,40.933212 35.015324,40.49663 35.130784,40.377562 L 35.340055,40.161075 34.932337,39.753357 34.52462,39.349248 Z"
         id="path5"
         style="fill:#ffffff;fill-opacity:1;stroke:none;stroke-width:0.0952203" /></g></g></svg>
