<?xml version="1.0" encoding="UTF-8" standalone="no"?>
<svg
   viewBox="0 0 64 64"
   version="1.1"
   id="svg15"
   sodipodi:docname="serialTracer.svg"
   inkscape:version="1.4.3 (0d15f75, 2025-12-25)"
   xmlns:inkscape="http://www.inkscape.org/namespaces/inkscape"
   xmlns:sodipodi="http://sodipodi.sourceforge.net/DTD/sodipodi-0.dtd"
   xmlns="http://www.w3.org/2000/svg"
   xmlns:svg="http://www.w3.org/2000/svg">
  <defs
     id="defs15" />
  <sodipodi:namedview
     id="namedview15"
     pagecolor="#ffffff"
     bordercolor="#666666"
     borderopacity="1.0"
     inkscape:showpageshadow="2"
     inkscape:pageopacity="0.0"
     inkscape:pagecheckerboard="0"
     inkscape:deskcolor="#d1d1d1"
     inkscape:zoom="13.3125"
     inkscape:cx="42.140845"
     inkscape:cy="41.014085"
     inkscape:window-width="1920"
     inkscape:window-height="1057"
     inkscape:window-x="-8"
     inkscape:window-y="-8"
     inkscape:window-maximized="1"
     inkscape:current-layer="svg15" />
  <!-- Fond -->
  <!-- Carte électronique -->
  <!-- Pastilles avec trous -->
  <!-- Gauche -->
  <!-- Droite -->
  <!-- Pistes à 45° (couche top blanche) -->
  <!-- Piste bottom (vert clair) -->
  <!-- Sélecteur : rond turquoise clair -->
  <text
     xml:space="preserve"
     style="font-stretch:semi-expanded;font-size:42.6667px;line-height:1;font-family:'Goudy Old Style';-inkscape-font-specification:'Goudy Old Style Semi-Expanded';text-align:center;writing-mode:lr-tb;direction:ltr;text-anchor:middle;fill:none;stroke:#00ffcc;stroke-width:2;stroke-linecap:round;stroke-dasharray:none;stroke-opacity:1"
     x="127.55399"
     y="16.769953"
     id="text6"><tspan
       sodipodi:role="line"
       id="tspan6"
       x="127.55399"
       y="16.769953" /></text>
  <path
     d="M 0.22489625,29.045908 V 50.221037 H 9.8765843 19.528272 L 19.265134,50.82675 C 18.624667,52.311243 18.282092,53.82056 18.172865,55.593015 L 18.138111,56.12922 H 31.483654 44.824234 L 44.794444,55.444069 C 44.719974,53.870209 44.337674,52.231805 43.697214,50.772136 43.573084,50.489139 43.468824,50.250826 43.468824,50.240896 43.468824,50.230966 48.036494,50.221037 53.621964,50.221037 H 63.775104 V 29.045908 7.8707803 H 32.000004 0.22489625 Z M 61.143724,29.045908 V 47.589661 H 32.000004 2.8562723 V 29.045908 10.502156 H 32.000004 61.143724 Z"
     id="path1"
     style="fill:#008184;fill-opacity:1;stroke:none;stroke-width:0.133334" />
  <path
     d="M 4.7429192,29.045908 V 45.703014 H 32.000004 59.257084 V 29.045908 12.388803 H 32.000004 4.7429192 Z"
     id="path2"
     style="fill:#008184;fill-opacity:1;stroke:none;stroke-width:0.133334" />
  <g
     transform="matrix(0.00732107,0,0,-0.00722289,-19.419572,51.91239)"
     fill="#009688"
     stroke="none"
     id="g2"
     style="fill:#00ffcc;fill-opacity:1;stroke:#00ffcc;stroke-width:201.692;stroke-dasharray:none;stroke-opacity:1">
    <path
       d="M 3263,2895 3323,3034 C 3357,3110 3386,3167 3389,3159 3392,3151 3412,3037 3434,2905 3472,2684 3477,2665 3496,2662 3516,2659 3532,2720 3799,3787 3954,4407 4083,4917 4086,4919 4088,4921 4090,4907 4090,4887 4090,4867 4101,4633 4115,4368 4156,3574 4159,3517 4175,3210 4183,3048 4201,2690 4215,2415 4229,2140 4247,1792 4255,1641 4263,1490 4270,1354 4270,1338 4270,1316 4274,1310 4293,1310 4315,1310 4317,1318 4444,2223 4514,2724 4574,3142 4577,3150 4579,3158 4604,3109 4632,3040 4659,2971 4686,2910 4691,2904 4701,2892 5431,2884 5581,2895 L 5677,2902 5735,3037 C 5768,3111 5796,3166 5799,3158 5802,3151 5822,3037 5844,2905 5908,2531 5878,2464 6179,3667 6318,4221 6446,4731 6463,4800 L 6495,4925 6502,4810 C 6506,4747 6518,4513 6530,4290 6541,4067 6555,3802 6560,3700 6566,3598 6584,3245 6600,2915 6617,2585 6642,2101 6655,1840 6669,1579 6680,1352 6680,1337 6680,1316 6685,1310 6703,1310 6725,1310 6727,1317 6853,2217 6924,2717 6984,3134 6987,3144 6991,3157 7009,3121 7045,3034 L 7097,2905 7146,2898 C 7231,2886 8049,2891 8058,2904 8063,2910 8091,2972 8121,3042 8151,3112 8177,3170 8180,3170 8183,3170 8203,3063 8224,2932 8271,2646 8268,2660 8291,2660 8303,2660 8312,2671 8319,2694 8324,2713 8451,3220 8602,3820 8851,4814 8876,4907 8882,4863 8886,4837 8899,4619 8910,4380 8922,4141 8935,3864 8941,3765 8952,3552 8999,2636 9035,1900 9049,1611 9063,1360 9066,1342 9073,1297 9105,1297 9114,1342 9117,1360 9176,1775 9245,2265 9314,2754 9372,3156 9374,3157 9376,3159 9401,3102 9431,3030 L 9485,2899 9697.8916,2900 H 9894.6383 L 9927.6383,2865 C 9977.6383,2812 10036.638,2819 10068.638,2881 10097.638,2936 10056.638,3000 9993.6383,3000 9958.6383,3000 9913.6383,2972 9913.6383,2950 9913.6383,2944 10037.141,2940 9721.8916,2940 H 9513 L 9445,3108 C 9408,3200 9372,3286 9365,3299 9353,3323 9353,3323 9347,3289 9341,3256 9141,1845 9118,1670 9104,1565 9090,1545 9090,1630 9090,1684 8982,3838 8935,4710 8927,4867 8920,5014 8920,5038 8920,5075 8917,5080 8897,5080 8876,5080 8871,5071 8848,4978 8834,4921 8704,4405 8560,3830 8416,3255 8297,2784 8296,2782 8294,2781 8273,2901 8249,3050 8225,3198 8203,3320 8200,3320 8197,3320 8158,3235 8113,3132 L 8031,2945 H 7580 7128 L 7050,3135 C 7007,3240 6969,3318 6966,3310 6964,3302 6909,2922 6845,2465 6781,2009 6725,1617 6721,1595 6713,1559 6712,1558 6711,1585 6710,1602 6681,2184 6645,2880 6609,3576 6571,4327 6560,4550 6535,5070 6534,5080 6510,5080 6497,5080 6488,5069 6482,5048 6477,5030 6348,4515 6194,3903 6041,3291 5912,2794 5909,2798 5906,2802 5886,2913 5865,3045 5844,3177 5824,3294 5820,3304 5815,3318 5791,3272 5729,3132 L 5645,2940 5182,2943 4718,2945 4640,3135 C 4597,3239 4559,3318 4556,3310 4553,3302 4501,2937 4440,2500 4379,2063 4323,1671 4316,1630 L 4304,1555 4297,1675 C 4291,1776 4174,4067 4140,4745 4124,5061 4122,5080 4100,5080 4087,5080 4078,5069 4071,5043 4065,5022 3935,4507 3783,3898 3630,3289 3502,2794 3499,2798 3496,2802 3476,2913 3455,3045 3434,3177 3414,3294 3410,3304 3405,3318 3381,3272 3319,3132 L 3235,2940 Z"
       id="path1-7"
       style="fill:#00ffcc;fill-opacity:1;stroke:#00ffcc;stroke-width:201.692;stroke-dasharray:none;stroke-opacity:1"
       sodipodi:nodetypes="ccsccccsccsssscccscccccccccccccssccccccsscsccccccccccccccccssscccccscsscsccscccccccccscsccssccccccssccccsccsscccc" />
  </g>
  <rect
     x="4.0912166"
     y="11.798365"
     width="55.843414"
     height="34.783703"
     fill="none"
     stroke="#ffffff"
     stroke-width="2.5"
     id="rect2-1" />
</svg>
